<svg width="30" height="30" viewBox="0 0 30 30" fill="none" xmlns="http://www.w3.org/2000/svg">
<path d="M15 0C6.72345 0 0 6.72345 0 15C0 23.2765 6.72345 30 15 30C23.2765 30 30 23.2765 30 15C30 6.72345 23.2765 0 15 0ZM15 1.30435C22.5716 1.30435 28.6957 7.42838 28.6957 15C28.6957 22.5716 22.5716 28.6957 15 28.6957C7.42838 28.6957 1.30435 22.5716 1.30435 15C1.30435 7.42838 7.42838 1.30435 15 1.30435ZM8.47954 10.4348L5.84791 10.4361C5.84791 10.4361 5.69732 10.4276 5.51546 10.4513C5.33359 10.4751 5.06491 10.4861 4.7894 10.7978L4.78813 10.7991L4.78685 10.8004C4.54179 11.0806 4.55114 11.4068 4.58178 11.5863C4.6123 11.7651 4.68113 11.8996 4.68113 11.8996V11.9009C4.70643 11.963 6.6172 16.6447 9.02599 19.1602C10.7251 20.9356 12.5422 21.5217 14.1606 21.5217H15C15.2762 21.5217 15.5228 21.5092 15.7961 21.3676C16.0694 21.2261 16.3043 20.8354 16.3043 20.532C16.3043 20.2052 16.3124 19.8883 16.354 19.7117C16.3929 19.5468 16.3779 19.5873 16.3935 19.5869C16.4091 19.5903 16.4376 19.5969 16.4916 19.6213C16.6079 19.6739 16.7877 19.7913 16.9871 19.9461C17.3852 20.2552 17.8569 20.7036 18.3857 21.0504C19.1432 21.5525 19.9652 21.5217 19.9652 21.5217H22.6758L22.7051 21.5192C22.7051 21.5192 23.121 21.5097 23.5483 21.2479C23.762 21.1169 24.0159 20.8768 24.1011 20.5167C24.1864 20.1567 24.0775 19.779 23.868 19.4468C23.7915 19.3249 23.42 18.7864 21.937 17.4699C21.5539 17.1301 21.2926 16.8895 21.1893 16.7616C21.1526 16.7162 21.1495 16.7206 21.1422 16.7183C21.1508 16.696 21.2365 16.5156 21.4657 16.2177C21.7046 15.9073 22.0676 15.4747 22.5344 14.8803C23.1293 14.1223 23.5468 13.3935 23.8094 12.7785C23.9408 12.471 24.0339 12.192 24.0897 11.9391C24.1455 11.6862 24.19 11.476 24.1075 11.1761C24.046 10.9529 23.8789 10.753 23.7152 10.6475C23.5514 10.542 23.3988 10.5022 23.2617 10.4768C22.9876 10.426 22.7458 10.4348 22.5204 10.4348C22.0483 10.4348 19.9499 10.4513 19.7767 10.4513C19.5734 10.4513 19.2491 10.536 19.099 10.622C18.7265 10.8354 18.6099 11.1277 18.6099 11.1277L18.5742 11.1901L18.5538 11.2602C18.5538 11.2602 18.076 12.806 17.5845 13.6027H17.5832C17.0053 14.5412 16.5742 14.9135 16.3846 15.0191C16.3645 15.0303 16.3756 15.0244 16.3617 15.0318C16.3468 14.9887 16.3281 14.9292 16.3158 14.8191C16.2881 14.5711 16.3043 14.2219 16.3043 13.8842C16.3043 12.9487 16.3746 12.3653 16.2967 11.813C16.2578 11.5368 16.1586 11.2293 15.9324 10.9927C15.7062 10.7561 15.414 10.6396 15.1223 10.5724H15.121C14.8169 10.5023 14.4893 10.4422 13.702 10.4348C12.699 10.4254 12.0457 10.4565 11.4653 10.715L11.4589 10.7188L11.4538 10.7214C11.2245 10.8291 11.0437 10.9526 10.8844 11.1175C10.8048 11.2 10.7104 11.26 10.645 11.5226C10.6122 11.6539 10.6087 11.9022 10.757 12.1034C10.9054 12.3046 11.1134 12.3653 11.236 12.3811C11.2134 12.3782 11.3324 12.4044 11.4245 12.4499C11.5166 12.4954 11.5965 12.5609 11.6168 12.5875V12.5887C11.6083 12.5777 11.6967 12.7974 11.72 12.9976C11.7433 13.1979 11.7391 13.3594 11.7391 13.3594L11.7379 13.3989L11.7417 13.4383C11.7417 13.4383 11.7817 13.8815 11.7608 14.3389C11.7503 14.5676 11.7214 14.7978 11.6831 14.9389C11.6811 14.9463 11.6801 14.9437 11.678 14.9503C11.5147 14.8363 11.1382 14.4389 10.6195 13.5823C10.14 12.7899 9.6909 11.3646 9.6909 11.3646L9.68071 11.3328L9.66924 11.3022C9.66924 11.3022 9.58551 10.9838 9.21578 10.7239C8.86923 10.48 8.5394 10.4462 8.5394 10.4462L8.47954 10.4348ZM8.32796 11.7391C8.36526 11.7528 8.44325 11.7809 8.45788 11.7875L8.44259 11.7417L8.46298 11.7888L8.46552 11.7901V11.7914H8.4668C8.43402 11.7684 8.46181 11.7912 8.46552 11.7965C8.48354 11.8579 8.88176 13.2296 9.50365 14.2574C10.0702 15.193 10.4887 15.7172 10.9456 16.0305C11.402 16.3435 12.0157 16.3112 12.3276 16.1489C12.7445 15.9324 12.861 15.5766 12.9416 15.2802C13.0221 14.9838 13.0508 14.6832 13.0639 14.3988C13.0887 13.8562 13.0462 13.4123 13.0422 13.3683C13.0429 13.3438 13.0487 13.1318 13.0155 12.846C12.982 12.5581 12.922 12.2003 12.6664 11.841C12.9527 11.7985 13.1116 11.7337 13.6893 11.7391C14.426 11.7461 14.5381 11.7768 14.828 11.8436C14.986 11.88 15.0035 11.9102 14.9885 11.8945C14.9736 11.8789 14.9872 11.8684 15.0051 11.9952C15.0408 12.2485 15 12.8984 15 13.8842C15 14.1621 14.9732 14.5539 15.0191 14.9643C15.065 15.3745 15.1932 15.8992 15.6891 16.2063C15.9717 16.3811 16.5115 16.4413 17.0202 16.1579C17.529 15.8744 18.051 15.3307 18.694 14.2867C19.329 13.2573 19.7088 11.9038 19.7499 11.7608C19.7499 11.7608 19.7572 11.7561 19.7614 11.7531C19.7729 11.7537 19.7582 11.7557 19.7767 11.7557C20.0182 11.7557 22.0794 11.7391 22.5204 11.7391C22.6417 11.7391 22.695 11.7457 22.7853 11.7493C22.7488 11.8901 22.6997 12.0541 22.6095 12.2652C22.3976 12.7614 22.0339 13.4049 21.5077 14.0752C21.0543 14.6527 20.702 15.0716 20.4327 15.4216C20.1633 15.7717 19.9517 16.0478 19.8633 16.447C19.7749 16.8462 19.9435 17.2965 20.1741 17.5819C20.4046 17.8674 20.6899 18.1078 21.0708 18.4456C22.5057 19.7194 22.7411 20.105 22.7637 20.141V20.1422C22.7879 20.1807 22.7722 20.142 22.7815 20.1613C22.7001 20.1867 22.6033 20.2154 22.5943 20.2174H19.955H19.9512C19.9512 20.2174 19.4657 20.2015 19.1054 19.9626L19.1041 19.9614H19.1028C18.7216 19.7117 18.2609 19.2834 17.787 18.9156C17.5501 18.7317 17.3089 18.5593 17.0291 18.4328C16.7494 18.3063 16.3948 18.2167 16.0216 18.3284C15.4814 18.4901 15.1816 19.0041 15.0853 19.4124C15.0162 19.7054 15.0264 19.9603 15.0242 20.2161C15.0056 20.2171 15.0217 20.2174 15 20.2174H14.1606C12.835 20.2174 11.456 19.8127 9.96858 18.2583C8.03477 16.2389 6.30943 12.3337 6.05044 11.7404L8.32796 11.7391ZM19.7041 11.7442C19.6922 11.7469 19.7261 11.7494 19.7537 11.7519C19.75 11.7539 19.7541 11.7501 19.7486 11.7531C19.7481 11.7422 19.72 11.7407 19.7041 11.7442Z" fill="black"/>
</svg>
