<svg width="31" height="31" viewBox="0 0 31 31" fill="none" xmlns="http://www.w3.org/2000/svg">
<path d="M15.1288 5.57996C11.0359 5.57996 7.19234 5.88996 5.14586 6.32347C3.78234 6.63347 2.60289 7.56347 2.35586 8.98996C2.10883 10.477 1.85938 12.71 1.85938 15.5C1.85938 18.29 2.10641 20.46 2.41641 22.01C2.66586 23.3735 3.84289 24.3664 5.20641 24.6764C7.37883 25.11 11.0964 25.42 15.1894 25.42C19.2823 25.42 22.9999 25.11 25.1699 24.6764C26.5359 24.3664 27.7129 23.4364 27.9599 22.01C28.2094 20.46 28.5194 18.2294 28.5799 15.4394C28.5799 12.6494 28.2699 10.4164 27.9599 8.86644C27.7129 7.50293 26.5359 6.50996 25.1699 6.19996C22.9999 5.88996 19.2194 5.57996 15.1288 5.57996ZM15.1288 6.81996C19.5923 6.81996 23.1864 7.1905 24.9229 7.5005C25.8529 7.74996 26.5964 8.36996 26.7199 9.17644C27.0929 11.16 27.3399 13.2694 27.3399 15.4394C27.2794 18.1035 26.9694 20.2735 26.7199 21.8235C26.5359 23.0005 25.2959 23.3735 24.9229 23.4994C22.6899 23.9329 18.9699 24.2405 15.2499 24.2405C11.5299 24.2405 7.74937 23.9935 5.57938 23.4994C4.64937 23.25 3.90586 22.63 3.78234 21.8235C3.28586 20.087 3.09938 17.7935 3.09938 15.5C3.09938 12.647 3.34883 10.54 3.59586 9.23941C3.78234 8.05996 5.08289 7.68699 5.39289 7.56347C7.43937 7.12996 11.2223 6.81996 15.1288 6.81996ZM11.7794 10.54V20.46L20.4594 15.5L11.7794 10.54ZM13.0194 12.6494L17.9794 15.5L13.0194 18.3505V12.6494Z" fill="black"/>
</svg>
